<?xml version="1.0" encoding="UTF-8" standalone="no"?>
<!-- Generator: Adobe Illustrator 16.0.0, SVG Export Plug-In . SVG Version: 6.00 Build 0)  -->

<svg
   id="Vrstva_1"
   enable-background="new 0 0 303.04 85.946"
   xml:space="preserve"
   height="85.946px"
   viewBox="0 0 303.04 85.946"
   width="303.04px"
   version="1.1"
   y="0px"
   x="0px"
   sodipodi:docname="logo.svg"
   inkscape:export-filename="logo.png"
   inkscape:export-xdpi="96"
   inkscape:export-ydpi="96"
   inkscape:version="1.2.2 (b0a8486541, 2022-12-01)"
   xmlns:inkscape="http://www.inkscape.org/namespaces/inkscape"
   xmlns:sodipodi="http://sodipodi.sourceforge.net/DTD/sodipodi-0.dtd"
   xmlns:xlink="http://www.w3.org/1999/xlink"
   xmlns="http://www.w3.org/2000/svg"
   xmlns:svg="http://www.w3.org/2000/svg"
   xmlns:rdf="http://www.w3.org/1999/02/22-rdf-syntax-ns#"
   xmlns:cc="http://creativecommons.org/ns#"
   xmlns:dc="http://purl.org/dc/elements/1.1/"><sodipodi:namedview
     id="namedview35"
     pagecolor="#ffffff"
     bordercolor="#000000"
     borderopacity="0.25"
     inkscape:showpageshadow="2"
     inkscape:pageopacity="0.0"
     inkscape:pagecheckerboard="0"
     inkscape:deskcolor="#d1d1d1"
     showgrid="false"
     inkscape:zoom="5.6956176"
     inkscape:cx="60.133953"
     inkscape:cy="43.103315"
     inkscape:window-width="1866"
     inkscape:window-height="1011"
     inkscape:window-x="0"
     inkscape:window-y="0"
     inkscape:window-maximized="1"
     inkscape:current-layer="Vrstva_1" /><defs
     id="defs3"><rect
       id="SVGID_1_"
       width="303.04"
       height="85.946" /></defs><metadata
     id="metadata57"><rdf:RDF><cc:Work
         rdf:about=""><dc:format>image/svg+xml</dc:format><dc:type
           rdf:resource="http://purl.org/dc/dcmitype/StillImage" /><dc:title /></cc:Work></rdf:RDF></metadata><g
     id="g3"
     transform="translate(0.17557359,6.1286155)"><clipPath
       id="SVGID_2_"><use
         id="use9"
         overflow="visible"
         xlink:href="#SVGID_1_" /></clipPath><g
       fill="#006940"
       id="g21"><path
         id="path11"
         d="m 232.92,39.943 c 1.06,-4.021 1.116,-8.485 0,-12.393 z"
         clip-path="url(#SVGID_2_)" /><path
         id="path13"
         d="m 191.72,42.388 v -9.58 c -0.62,3.119 -0.67,6.462 0,9.58"
         clip-path="url(#SVGID_2_)" /><polygon
         id="polygon15"
         points=""
         clip-path="url(#SVGID_2_)" /><path
         id="path17"
         d="M 285.96,34.528"
         clip-path="url(#SVGID_2_)" /><polygon
         id="polygon19"
         points="232.92,51.053 232.14,55.241 232.92,55.241 "
         clip-path="url(#SVGID_2_)" /><path
         id="path21"
         d="m 231.24,23.639 c -2.959,-5.025 -7.985,-7.258 -13.176,-8.207 -1.898,-0.334 -3.741,-0.391 -5.527,-0.334 V 15.1 c -7.424,0.389 -14.012,4.018 -18.258,10.496 -1.172,2.119 -2.066,4.576 -2.568,7.201 v 0.011 c 10e-4,-0.003 0.002,-0.007 0.002,-0.011 v 9.602 c -0.001,-0.004 -0.001,-0.008 -0.002,-0.011 v 0.011 c 0.56,2.569 1.564,4.969 3.183,6.979 3.574,4.467 8.543,6.477 14.014,6.756 1.229,0.11 2.457,0.11 3.629,0 V 43.126 c -0.223,0.057 -0.447,0.057 -0.67,0.057 -1.786,-0.336 -3.687,-0.504 -4.913,-2.178 -1.507,-1.619 -1.507,-4.133 -1.452,-6.254 0.392,-2.289 1.9,-4.354 4.021,-5.639 0.947,-0.559 1.954,-0.893 3.015,-0.893 v -0.002 c 2.791,-0.111 5.584,1.508 6.645,4.188 1.115,3.014 -0.057,6.141 -2.01,8.43 -1.341,1.283 -2.849,2.066 -4.635,2.289 v 13.008 c 7.09,-0.391 13.233,-3.35 17.419,-9.491 1.284,-1.897 2.345,-4.243 2.959,-6.698 V 27.549 c -0.37,-1.396 -0.93,-2.736 -1.66,-3.91"
         clip-path="url(#SVGID_2_)" /><path
         id="path23"
         d="m 145.77,16.16 h -26.631 l -7.314,39.08 28.082,-0.168 c 0.568,-3.516 1.299,-6.827 1.842,-10.44 h -13.343 l -0.64,-0.029 c 0.391,-1.282 0.792,-3.041 1.199,-4.38 h 11.725 l 1.842,-9.66 h -11.501 l -0.535,-0.022 c 0.368,-1.168 0.667,-2.646 1.038,-3.998 h 12.449 v 0.001 l 1.78,-10.384 z"
         clip-path="url(#SVGID_2_)" /><path
         id="path25"
         d="m 192.16,16.161 h -14.068 l -3.627,19.371 h -0.16 C 172.24,28.944 169.67,22.581 167.27,16.161 h -14.181 l -7.314,39.08 14.404,-0.168 3.293,-19.205 c 2.681,6.197 5.026,12.84 7.147,19.373 h 14.403 l 6.699,-36.457 0.45,-2.623 z"
         clip-path="url(#SVGID_2_)" /><path
         id="path27"
         d="m 297.96,16.16 h -12.111 v 0.001 h -3.464 l -15.576,29.813 v 0.009 -0.01 l -4.913,9.268 4.913,-0.057 10.496,-0.11 2.345,-5.08 h 6.309 v -0.002 h 3.038 l 0.032,0.279 c 0.011,1.884 0.167,3.212 0.167,4.969 h 13.846 l -5.1,-39.08 z m -12,24.397 v 0.002 l -2.289,0.053 2.289,-6.084 v -0.011 0.011 l 1.787,-4.635 0.502,10.553 -2.29,0.111 z"
         clip-path="url(#SVGID_2_)" /><path
         id="path29"
         d="m 271.05,24.031 c -1.06,-2.289 -2.567,-3.963 -4.242,-5.137 v 0.001 c -3.455,-2.343 -7.915,-2.79 -12.597,-2.79 v -0.001 c -4.969,0 -9.986,0.074 -14.928,0.055 l -6.363,34.893 v 4.188 l 13.454,-0.168 c 0.838,-3.965 1.228,-8.039 2.457,-11.891 1.766,0.054 3.593,0.107 5.359,0.055 v 0.002 c 0.015,0 0.03,-0.002 0.046,-0.002 h 0.019 v -10e-4 c 4.331,-0.117 8.438,-0.734 11.939,-3.011 0.222,-0.114 0.39,-0.28 0.613,-0.393 V 39.83 c 4.91,-3.628 5.58,-10.103 4.24,-15.799 m -16.08,8.377 c -0.222,0.055 -0.502,0.111 -0.78,0.166 v 0.008 l -0.001,-0.01 c -1.06,0.225 -2.232,0.28 -3.404,0.225 0,-2.067 0.614,-4.356 1.34,-6.422 0.614,0.057 1.34,0.113 2.064,0.168 l 0.001,-0.031 v 0.032 c 1.508,0.168 2.903,0.559 3.405,2.178 0.05,1.676 -1.06,3.239 -2.63,3.686"
         clip-path="url(#SVGID_2_)" /><rect
         id="rect31"
         clip-path="url(#SVGID_2_)"
         height="25.57"
         width="12.283"
         y="29.67"
         x="56.778" /><path
         id="path33"
         d="m 117.47,16.161 c -5.64,0 -11.334,-0.113 -16.806,0.166 L 90.615,31.347 C 91.229,26.321 92.346,21.128 93.35,16.161 H 79.114 l -7.09,39.08 h 14.013 c 1.34,-5.362 1.675,-11.224 3.351,-16.471 2.176,5.247 3.851,11.055 6.028,16.471 h 15.13 c -2.457,-6.533 -5.304,-12.896 -7.872,-19.373 l 14.8,-19.707 z"
         clip-path="url(#SVGID_2_)" /><path
         id="path35"
         d="M 27.803,36.425 C 27.413,29.559 26.407,22.86 25.738,16.161 H 11.723 L 0,55.241 h 13.176 c 1.731,-6.309 3.461,-12.673 5.248,-18.982 l 0.391,0.336 1.785,18.478 h 8.265 c 2.959,-6.478 6.084,-13.008 8.987,-19.428 -0.168,6.475 -0.781,13.119 -1.34,19.596 h 12.84 l 1.955,-39.08 -14.404,0.166 c -2.904,6.756 -5.973,13.623 -9.1,20.098"
         clip-path="url(#SVGID_2_)" /></g><g
       fill="#939598"
       id="g31"><path
         id="path37"
         d="m 69.489,22.018 c 0,3.235 -2.87,5.862 -6.42,5.862 -3.54,0 -6.41,-2.627 -6.41,-5.862 0,-3.236 2.87,-5.857 6.41,-5.857 3.55,0 6.42,2.622 6.42,5.857"
         clip-path="url(#SVGID_2_)" /></g></g></svg>
