<?xml version="1.0" encoding="UTF-8" standalone="no"?>
<!-- Generator: Adobe Illustrator 16.0.0, SVG Export Plug-In . SVG Version: 6.00 Build 0)  -->

<svg
   id="Vrstva_1"
   enable-background="new 0 0 303.04 85.946"
   xml:space="preserve"
   height="85.946px"
   viewBox="0 0 303.04 85.946"
   width="303.04px"
   version="1.1"
   y="0px"
   x="0px"
   sodipodi:docname="logo-white.svg"
   inkscape:export-filename="logo.png"
   inkscape:export-xdpi="96"
   inkscape:export-ydpi="96"
   inkscape:version="1.2.2 (b0a8486541, 2022-12-01)"
   xmlns:inkscape="http://www.inkscape.org/namespaces/inkscape"
   xmlns:sodipodi="http://sodipodi.sourceforge.net/DTD/sodipodi-0.dtd"
   xmlns:xlink="http://www.w3.org/1999/xlink"
   xmlns="http://www.w3.org/2000/svg"
   xmlns:svg="http://www.w3.org/2000/svg"
   xmlns:rdf="http://www.w3.org/1999/02/22-rdf-syntax-ns#"
   xmlns:cc="http://creativecommons.org/ns#"
   xmlns:dc="http://purl.org/dc/elements/1.1/"><sodipodi:namedview
     id="namedview35"
     pagecolor="#ffffff"
     bordercolor="#000000"
     borderopacity="0.25"
     inkscape:showpageshadow="2"
     inkscape:pageopacity="0.0"
     inkscape:pagecheckerboard="0"
     inkscape:deskcolor="#d1d1d1"
     showgrid="false"
     inkscape:zoom="5.646519"
     inkscape:cx="132.8252"
     inkscape:cy="24.882587"
     inkscape:window-width="1866"
     inkscape:window-height="1011"
     inkscape:window-x="0"
     inkscape:window-y="0"
     inkscape:window-maximized="1"
     inkscape:current-layer="Vrstva_1" /><defs
     id="defs3"><rect
       id="SVGID_1_"
       width="303.04"
       height="85.946" /></defs><metadata
     id="metadata57"><rdf:RDF><cc:Work
         rdf:about=""><dc:format>image/svg+xml</dc:format><dc:type
           rdf:resource="http://purl.org/dc/dcmitype/StillImage" /></cc:Work></rdf:RDF></metadata><g
     id="g3"
     transform="translate(0.17557359,6.1286155)"><clipPath
       id="SVGID_2_"><use
         id="use9"
         overflow="visible"
         xlink:href="#SVGID_1_" /></clipPath><g
       fill="#006940"
       id="g21"><path
         id="path11"
         d="m 232.92,39.943 c 1.06,-4.021 1.116,-8.485 0,-12.393 z"
         clip-path="url(#SVGID_2_)" /><path
         id="path13"
         d="m 191.72,42.388 v -9.58 c -0.62,3.119 -0.67,6.462 0,9.58"
         clip-path="url(#SVGID_2_)" /><polygon
         id="polygon15"
         points=""
         clip-path="url(#SVGID_2_)" /><path
         id="path17"
         d="M 285.96,34.528"
         clip-path="url(#SVGID_2_)" /><polygon
         id="polygon19"
         points="232.92,51.053 232.14,55.241 232.92,55.241 "
         clip-path="url(#SVGID_2_)" /><path
         id="path21"
         d="m 231.24,23.639 c -2.959,-5.025 -7.985,-7.258 -13.176,-8.207 -1.898,-0.334 -3.741,-0.391 -5.527,-0.334 V 15.1 c -7.424,0.389 -14.012,4.018 -18.258,10.496 -1.172,2.119 -2.066,4.576 -2.568,7.201 v 0.011 c 10e-4,-0.003 0.002,-0.007 0.002,-0.011 v 9.602 c -0.001,-0.004 -0.001,-0.008 -0.002,-0.011 v 0.011 c 0.56,2.569 1.564,4.969 3.183,6.979 3.574,4.467 8.543,6.477 14.014,6.756 1.229,0.11 2.457,0.11 3.629,0 V 43.126 c -0.223,0.057 -0.447,0.057 -0.67,0.057 -1.786,-0.336 -3.687,-0.504 -4.913,-2.178 -1.507,-1.619 -1.507,-4.133 -1.452,-6.254 0.392,-2.289 1.9,-4.354 4.021,-5.639 0.947,-0.559 1.954,-0.893 3.015,-0.893 v -0.002 c 2.791,-0.111 5.584,1.508 6.645,4.188 1.115,3.014 -0.057,6.141 -2.01,8.43 -1.341,1.283 -2.849,2.066 -4.635,2.289 v 13.008 c 7.09,-0.391 13.233,-3.35 17.419,-9.491 1.284,-1.897 2.345,-4.243 2.959,-6.698 V 27.549 c -0.37,-1.396 -0.93,-2.736 -1.66,-3.91"
         clip-path="url(#SVGID_2_)" /><path
         id="path23"
         d="m 145.77,16.16 h -26.631 l -7.314,39.08 28.082,-0.168 c 0.568,-3.516 1.299,-6.827 1.842,-10.44 h -13.343 l -0.64,-0.029 c 0.391,-1.282 0.792,-3.041 1.199,-4.38 h 11.725 l 1.842,-9.66 h -11.501 l -0.535,-0.022 c 0.368,-1.168 0.667,-2.646 1.038,-3.998 h 12.449 v 0.001 l 1.78,-10.384 z"
         clip-path="url(#SVGID_2_)" /><path
         id="path25"
         d="m 192.16,16.161 h -14.068 l -3.627,19.371 h -0.16 C 172.24,28.944 169.67,22.581 167.27,16.161 h -14.181 l -7.314,39.08 14.404,-0.168 3.293,-19.205 c 2.681,6.197 5.026,12.84 7.147,19.373 h 14.403 l 6.699,-36.457 0.45,-2.623 z"
         clip-path="url(#SVGID_2_)" /><path
         id="path27"
         d="m 297.96,16.16 h -12.111 v 0.001 h -3.464 l -15.576,29.813 v 0.009 -0.01 l -4.913,9.268 4.913,-0.057 10.496,-0.11 2.345,-5.08 h 6.309 v -0.002 h 3.038 l 0.032,0.279 c 0.011,1.884 0.167,3.212 0.167,4.969 h 13.846 l -5.1,-39.08 z m -12,24.397 v 0.002 l -2.289,0.053 2.289,-6.084 v -0.011 0.011 l 1.787,-4.635 0.502,10.553 -2.29,0.111 z"
         clip-path="url(#SVGID_2_)" /><path
         id="path29"
         d="m 271.05,24.031 c -1.06,-2.289 -2.567,-3.963 -4.242,-5.137 v 0.001 c -3.455,-2.343 -7.915,-2.79 -12.597,-2.79 v -0.001 c -4.969,0 -9.986,0.074 -14.928,0.055 l -6.363,34.893 v 4.188 l 13.454,-0.168 c 0.838,-3.965 1.228,-8.039 2.457,-11.891 1.766,0.054 3.593,0.107 5.359,0.055 v 0.002 c 0.015,0 0.03,-0.002 0.046,-0.002 h 0.019 v -10e-4 c 4.331,-0.117 8.438,-0.734 11.939,-3.011 0.222,-0.114 0.39,-0.28 0.613,-0.393 V 39.83 c 4.91,-3.628 5.58,-10.103 4.24,-15.799 m -16.08,8.377 c -0.222,0.055 -0.502,0.111 -0.78,0.166 v 0.008 l -0.001,-0.01 c -1.06,0.225 -2.232,0.28 -3.404,0.225 0,-2.067 0.614,-4.356 1.34,-6.422 0.614,0.057 1.34,0.113 2.064,0.168 l 0.001,-0.031 v 0.032 c 1.508,0.168 2.903,0.559 3.405,2.178 0.05,1.676 -1.06,3.239 -2.63,3.686"
         clip-path="url(#SVGID_2_)" /><rect
         id="rect31"
         clip-path="url(#SVGID_2_)"
         height="25.57"
         width="12.283"
         y="29.67"
         x="56.778" /><path
         id="path33"
         d="m 117.47,16.161 c -5.64,0 -11.334,-0.113 -16.806,0.166 L 90.615,31.347 C 91.229,26.321 92.346,21.128 93.35,16.161 H 79.114 l -7.09,39.08 h 14.013 c 1.34,-5.362 1.675,-11.224 3.351,-16.471 2.176,5.247 3.851,11.055 6.028,16.471 h 15.13 c -2.457,-6.533 -5.304,-12.896 -7.872,-19.373 l 14.8,-19.707 z"
         clip-path="url(#SVGID_2_)" /><path
         id="path35"
         d="M 27.803,36.425 C 27.413,29.559 26.407,22.86 25.738,16.161 H 11.723 L 0,55.241 h 13.176 c 1.731,-6.309 3.461,-12.673 5.248,-18.982 l 0.391,0.336 1.785,18.478 h 8.265 c 2.959,-6.478 6.084,-13.008 8.987,-19.428 -0.168,6.475 -0.781,13.119 -1.34,19.596 h 12.84 l 1.955,-39.08 -14.404,0.166 c -2.904,6.756 -5.973,13.623 -9.1,20.098"
         clip-path="url(#SVGID_2_)" /></g><g
       fill="#939598"
       id="g31"><path
         id="path37"
         d="m 69.489,22.018 c 0,3.235 -2.87,5.862 -6.42,5.862 -3.54,0 -6.41,-2.627 -6.41,-5.862 0,-3.236 2.87,-5.857 6.41,-5.857 3.55,0 6.42,2.622 6.42,5.857"
         clip-path="url(#SVGID_2_)" /></g></g><path
     style="fill:#ffffff;stroke-width:0.175574"
     d="M 0.37836011,61.055714 C 0.42352912,60.886725 3.045287,52.136576 6.2044887,41.61094 l 5.7440033,-19.137521 6.974306,-0.04591 c 6.717075,-0.04421 6.974306,-0.03377 6.974306,0.283089 0,0.180949 0.355199,3.472951 0.789331,7.315562 0.434132,3.84261 0.884521,8.238434 1.000863,9.768499 0.116344,1.530062 0.259659,2.781933 0.318483,2.781933 0.05882,0 0.428588,-0.691321 0.821699,-1.536269 2.443996,-5.253086 4.908865,-10.682013 6.476827,-14.265353 l 1.805402,-4.12598 3.216271,-0.109267 c 1.768948,-0.0601 4.9742,-0.119353 7.122781,-0.13168 l 3.906513,-0.02241 v 0.390824 c 0,0.71942 -1.745757,35.669764 -1.85503,37.13803 l -0.107802,1.448482 h -6.322128 -6.322125 l 0.106808,-1.009548 c 0.227652,-2.151739 0.796779,-9.59142 0.970404,-12.685192 0.287061,-5.115067 0.316268,-5.969832 0.203804,-5.964642 -0.05792,0.0027 -0.397523,0.654489 -0.754671,1.448482 -0.357149,0.793993 -2.371855,5.17375 -4.477127,9.732794 l -3.827765,8.289171 -4.082086,0.0067 -4.082086,0.0067 -0.0031,-0.39504 C 20.79157,59.39654 19.0372,42.669488 18.88571,42.517998 c -0.379133,-0.379134 -0.162929,-1.071303 -3.72014,11.909853 -0.76739,2.800399 -1.513236,5.506427 -1.657436,6.013396 l -0.262183,0.921761 H 6.7711156 c -6.08079013,0 -6.46988242,-0.0187 -6.39275549,-0.307254 z"
     id="path268" /><path
     style="fill:#ffffff;stroke-width:0.175574"
     d="M 56.973628,48.633883 V 35.904798 h 6.057289 6.057289 v 12.729085 12.729085 h -6.057289 -6.057289 z"
     id="path270" /><path
     style="fill:#ffffff;stroke-width:0.175574"
     d="m 72.591553,59.738912 c 0.162407,-0.89323 1.751581,-9.663119 3.531497,-19.48864 l 3.23621,-17.864585 6.97905,-2.8e-5 c 5.665389,-2.2e-5 6.97905,0.04362 6.97905,0.231848 0,0.127532 -0.317951,1.806454 -0.706557,3.730939 -0.615898,3.050096 -1.501474,8.089293 -1.825969,10.390327 -0.05787,0.410403 -0.04504,0.743961 0.02853,0.741239 0.07357,-0.0027 2.360663,-3.352812 5.082438,-7.444647 l 4.948678,-7.439699 1.63533,-0.114866 c 0.89943,-0.06318 4.62623,-0.09068 8.28177,-0.06112 l 6.64645,0.05374 -7.30485,9.69663 c -4.01767,5.333147 -7.30485,9.766497 -7.30485,9.851891 0,0.08539 0.99383,2.556111 2.20851,5.490484 2.96034,7.151467 5.51673,13.495862 5.51673,13.691295 0,0.09277 -3.09908,0.159249 -7.424,0.159249 H 95.675559 L 95.357236,60.528993 C 95.182157,60.070307 94.2134,57.36428 93.20444,54.515598 90.853838,47.878945 89.792275,45.046934 89.613816,44.93664 c -0.312585,-0.193188 -1.17537,3.604129 -2.176496,9.579276 -0.54762,3.268429 -0.784588,4.507537 -1.233887,6.452011 l -0.09128,0.395041 H 79.20421 72.296267 Z"
     id="path272" /><path
     style="fill:#ffffff;stroke-width:0.175574"
     d="m 112.15201,61.011821 c 0.0365,-0.144848 1.67897,-8.894997 3.64992,-19.444775 l 3.58355,-19.181414 h 13.22814 13.22814 l -0.0966,0.482827 c -0.0531,0.265555 -0.41562,2.379023 -0.80558,4.696594 -0.38996,2.317571 -0.74933,4.391534 -0.7986,4.608806 l -0.0896,0.395041 h -6.20785 -6.20785 l -0.45409,1.812199 c -0.24975,0.996709 -0.50459,1.943773 -0.5663,2.104587 -0.10313,0.268769 0.37542,0.29612 5.9239,0.338578 l 6.0361,0.04619 -0.88411,4.6527 -0.88411,4.6527 -5.88772,0.04618 -5.88771,0.04619 -0.56542,2.148485 c -0.31097,1.181667 -0.5644,2.207742 -0.56317,2.280166 0.001,0.07242 3.12307,0.13168 6.9374,0.13168 5.79657,0 6.93516,0.03998 6.93516,0.243531 0,0.25192 -1.76354,10.001746 -1.81977,10.060746 -0.0174,0.01827 -6.29536,0.05777 -13.95097,0.08779 -12.30324,0.04823 -13.9116,0.02399 -13.85292,-0.208795 z"
     id="path274" /><path
     style="fill:#ffffff;stroke-width:0.175574"
     d="m 146.10842,61.011821 c 0.0349,-0.144848 1.6405,-8.717229 3.56812,-19.049734 1.92761,-10.332506 3.54726,-18.964142 3.59922,-19.181414 l 0.0945,-0.395041 h 7.00081 c 6.50446,0 7.00936,0.02178 7.1214,0.307254 1.31646,3.354405 4.89611,13.047917 5.7218,15.494369 1.03849,3.076944 1.28915,3.676895 1.46217,3.499766 0.0669,-0.06845 3.61858,-18.896121 3.61858,-19.182112 0,-0.0656 3.12979,-0.119277 6.95509,-0.119277 h 6.95509 l -0.12307,0.833975 c -0.0677,0.458686 -1.65681,9.181754 -3.5314,19.384596 -1.87459,10.202841 -3.40834,18.59834 -3.40834,18.656662 0,0.05832 -3.21277,0.0854 -7.13949,0.06018 l -7.13949,-0.04586 -1.17315,-3.511472 c -1.92214,-5.753397 -5.52922,-15.283018 -5.96975,-15.771634 -0.0722,-0.08007 -0.21209,0.314968 -0.31089,0.877868 -0.0988,0.562899 -0.83199,4.855347 -1.62932,9.538772 -0.79733,4.683425 -1.49636,8.569431 -1.55342,8.635568 -0.0571,0.06614 -3.27129,0.145143 -7.14275,0.175573 -6.18656,0.04863 -7.03135,0.02343 -6.97567,-0.208035 z"
     id="path276" /><path
     style="fill:#ffffff;stroke-width:0.175574"
     d="m 61.912819,33.794486 c -1.957644,-0.410756 -3.715462,-1.790777 -4.495761,-3.529514 -0.411192,-0.916258 -0.470479,-1.249011 -0.413992,-2.323595 0.11649,-2.216084 1.293335,-3.890316 3.454183,-4.914076 1.05899,-0.501724 1.326146,-0.553583 2.837028,-0.55071 1.43062,0.0027 1.809726,0.06918 2.664355,0.467098 1.973624,0.918915 3.313408,2.66119 3.577535,4.652277 0.223715,1.686448 -0.769524,3.877605 -2.251833,4.967708 -1.45643,1.071071 -3.691747,1.583264 -5.371515,1.230812 z"
     id="path278" /><path
     style="fill:#ffffff;stroke-width:0.175574"
     d="m 207.64626,62.058273 c -7.6156,-0.957826 -13.16209,-5.313454 -15.21381,-11.947319 l -0.46629,-1.507682 0.0601,-5.339688 0.0601,-5.33969 0.58547,-1.755736 c 1.18583,-3.556182 2.44713,-5.627214 4.97415,-8.16751 3.04974,-3.065755 6.87178,-5.169979 11.19876,-6.165469 1.94983,-0.44859 6.26227,-0.62679 8.26799,-0.341653 7.67079,1.090495 12.89381,4.706876 15.36183,10.63644 l 0.51155,1.229015 0.0502,6.275876 0.0502,6.275876 -0.53878,1.608151 c -2.11404,6.309977 -7.00353,11.275539 -13.16861,13.373462 -3.20345,1.090112 -8.305,1.597063 -11.73293,1.165927 z m 6.90065,-13.177095 c 2.01941,-0.766429 3.42389,-2.146699 4.47933,-4.402132 1.82233,-3.89423 0.52367,-7.88818 -3.12023,-9.596076 -0.88912,-0.416729 -1.21479,-0.470547 -2.84746,-0.470547 -1.63932,0 -1.95643,0.0529 -2.86279,0.477559 -1.35558,0.635142 -3.1399,2.364867 -3.79796,3.681778 -0.818,1.636951 -0.97423,2.637197 -0.73732,4.72062 0.24228,2.130624 0.60075,3.015557 1.69575,4.186204 1.61332,1.724768 4.73662,2.333989 7.19068,1.402594 z"
     id="path280" /><path
     style="fill:#ffffff;stroke-width:0.175574"
     d="m 233.2494,59.070468 c 1e-4,-2.094973 0.1534,-3.047543 3.07977,-19.13752 1.69382,-9.313045 3.12129,-17.071073 3.17216,-17.240062 0.0865,-0.287469 0.67709,-0.307254 9.1712,-0.307254 11.42185,0 13.27114,0.206604 16.68574,1.864135 1.35807,0.659242 1.89668,1.050666 3.07253,2.232902 2.46452,2.477888 3.0352,3.84543 3.21519,7.704634 0.38186,8.187984 -3.65555,13.017077 -12.24289,14.643542 -1.00711,0.190752 -2.93704,0.309926 -5.99285,0.370063 l -4.50735,0.0887 -0.35977,1.340084 c -0.48416,1.80338 -0.76784,3.202092 -1.42912,7.046227 -0.30731,1.786461 -0.60949,3.303016 -0.67151,3.370122 -0.062,0.06711 -3.05586,0.146114 -6.65299,0.175574 l -6.54022,0.05356 z m 21.53228,-20.355891 c 2.13842,-0.466693 3.63759,-2.916343 2.78902,-4.557283 -0.49488,-0.956999 -1.6675,-1.418184 -4.25188,-1.672245 l -1.0873,-0.106889 -0.45974,1.455335 c -0.38995,1.234418 -0.96041,4.216194 -0.96388,5.038149 -8.8e-4,0.199399 0.28723,0.226166 1.53523,0.142651 0.84495,-0.05654 1.9423,-0.191416 2.43855,-0.299718 z"
     id="path282" /><path
     style="fill:#ffffff;stroke-width:0.175574"
     d="m 262.49034,60.81823 c 0.16884,-0.32807 1.70549,-3.243262 3.41478,-6.478205 1.70929,-3.234944 6.1705,-11.748068 9.9138,-18.918054 l 6.806,-13.036339 h 7.68608 7.68608 l 0.10141,0.570614 c 0.0558,0.313838 1.17334,8.826962 2.48349,18.918054 1.31014,10.091092 2.42772,18.604216 2.48349,18.918054 l 0.1014,0.570614 h -6.86691 -6.86691 v -1.02647 c 0,-0.564557 -0.0513,-1.749679 -0.11407,-2.633604 l -0.11408,-1.607134 -4.75809,0.0049 -4.75809,0.0049 -1.14123,2.536028 -1.14123,2.536029 -6.93515,0.0068 c -3.81434,0.0038 -7.23949,0.05711 -7.61145,0.118556 l -0.67629,0.11173 z M 288.4484,46.599543 c 0.0372,-0.0399 -0.039,-2.205762 -0.16917,-4.81303 -0.13021,-2.607268 -0.2399,-5.013065 -0.24375,-5.346215 -0.008,-0.671592 -0.20662,-0.569118 -0.49401,0.254581 -0.10107,0.289697 -0.98094,2.62009 -1.95527,5.178652 -0.97432,2.558562 -1.7715,4.72202 -1.7715,4.807684 0,0.148976 4.49264,0.06979 4.6337,-0.08167 z"
     id="path284" /><path
     style="fill:#ffffff;stroke-width:0.175574"
     d="m 233.28478,39.767417 c 0,-3.795933 0.0409,-4.678115 0.19129,-4.125979 0.24994,0.917643 0.24994,7.334315 0,8.251958 -0.15039,0.552136 -0.19129,-0.330046 -0.19129,-4.125979 z"
     id="path286" /><path
     style="fill:#ffffff;stroke-width:0.02399"
     d="m 233.10166,39.873438 c -0.001,-3.350308 0.002,-6.086636 0.008,-6.080727 0.026,0.02597 0.26171,1.016823 0.35893,1.508626 0.17465,0.883468 0.27963,1.644688 0.36396,2.638904 0.052,0.612851 0.0722,2.312625 0.0359,3.013026 -0.083,1.599624 -0.32321,3.260808 -0.67103,4.640629 l -0.0935,0.371012 z m 0.35383,4.122463 c 0.1213,-0.266214 0.18998,-1.435955 0.21117,-3.596682 0.0263,-2.681229 -0.0715,-4.687302 -0.23888,-4.900981 -0.0829,-0.105777 -0.10925,0.201792 -0.13637,1.590357 -0.056,2.864832 -0.008,6.79678 0.0847,6.946798 0.0235,0.03805 0.0501,0.02484 0.0794,-0.03949 z"
     id="path288" /><path
     style="fill:#ffffff;stroke-width:0.02399"
     d="m 233.06966,43.415966 c -0.004,-0.616843 -0.001,-3.059329 0.006,-5.427745 l 0.0121,-4.306211 0.006,5.427745 c 0.003,2.98526 6.8e-4,5.427746 -0.006,5.427746 -0.006,0 -0.0144,-0.504691 -0.018,-1.121535 z"
     id="path290" /><path
     style="fill:#ffffff;stroke-width:0.02399"
     d="m 233.08205,43.613884 c 1.8e-4,-0.06597 0.005,-0.09011 0.0103,-0.05365 0.006,0.03647 0.005,0.09044 -3.2e-4,0.119951 -0.006,0.02951 -0.0102,-3.3e-4 -0.01,-0.0663 z"
     id="path292" /><path
     style="fill:#ffffff;stroke-width:0.02399"
     d=""
     id="path294" /><path
     style="fill:#ffffff;stroke-width:0.02399"
     d=""
     id="path296" /><path
     style="fill:#ffffff;stroke-width:0.02399"
     d="m 233.03071,37.568395 c -0.002,-0.540975 -0.009,-1.690697 -0.0151,-2.554938 -0.01,-1.369265 -0.007,-1.559007 0.0222,-1.475388 0.0281,0.07992 0.0336,0.483018 0.0329,2.410999 -4.2e-4,1.273271 -0.009,2.379811 -0.0186,2.458979 -0.0102,0.08226 -0.0194,-0.277512 -0.0214,-0.839652 z"
     id="path298" /><path
     style="fill:#ffffff;stroke-width:0.02399"
     d="m 233.03857,35.337322 c 0,-0.936811 0.003,-1.323543 0.007,-0.859406 0.004,0.464138 0.004,1.23062 0,1.703293 -0.004,0.472673 -0.007,0.09292 -0.007,-0.843887 z"
     id="path300" /><path
     style="fill:#ffffff;stroke-width:0.02399"
     d="m 233.03857,35.337322 c 0,-0.936811 0.003,-1.323543 0.007,-0.859406 0.004,0.464138 0.004,1.23062 0,1.703293 -0.004,0.472673 -0.007,0.09292 -0.007,-0.843887 z"
     id="path302" /><path
     style="fill:#ffffff;stroke-width:0.0100045"
     d="m 192.10807,49.418785 c -0.0171,-0.02761 -0.21593,-0.870533 -0.21593,-0.915244 0,-0.01396 -0.0245,-0.148326 -0.0545,-0.298582 -0.25666,-1.286661 -0.39313,-2.596689 -0.41433,-3.977299 -0.0264,-1.72085 0.0993,-3.209937 0.42333,-5.014853 0.0242,-0.134811 0.0492,-0.281127 0.0555,-0.325147 0.0113,-0.0791 0.13748,-0.688896 0.16453,-0.795362 0.0126,-0.04944 0.0135,-0.02204 0.009,0.270123 -0.003,0.178831 -0.0295,2.5566 -0.0598,5.283931 l -0.0551,4.958785 0.12562,0.40588 c 0.0691,0.223234 0.12563,0.408254 0.12563,0.411155 0,0.009 -0.0985,0.0058 -0.10422,-0.0034 z"
     id="path304" /><path
     style="fill:#ffffff;stroke-width:0.00390625"
     d="m 233.0957,59.361328 v -2.003906 h 0.11524 c 0.0711,0 0.11523,0.0014 0.11523,0.0038 0,0.0021 -0.005,0.05963 -0.0116,0.12793 -0.028,0.298615 -0.0439,0.546899 -0.0593,0.923004 -0.003,0.07244 -0.005,0.556405 -0.006,1.485985 l -0.002,1.378563 0.35275,-0.0027 c 0.99254,-0.0075 2.75895,-0.02184 2.89865,-0.0236 l 0.15918,-0.002 v 0.03646 0.03646 l -0.15136,0.0026 c -0.21179,0.0037 -3.25274,0.04126 -3.33985,0.04127 l -0.0713,5e-6 z"
     id="path306" /><path
     style="fill:#ffffff;stroke-width:0.00390625"
     d="m 232.31836,61.367398 c 0,-0.0019 0.74091,-3.981869 0.74449,-3.999234 0.002,-0.0092 0.004,-0.01074 0.0156,-0.01074 h 0.0134 v 2.005859 2.00586 h -0.38672 c -0.2127,0 -0.38672,-7.84e-4 -0.38672,-0.0017 z"
     id="path308" /></svg>
