<svg id="visual" viewBox="0 0 900 600" width="900" height="600" xmlns="http://www.w3.org/2000/svg" xmlns:xlink="http://www.w3.org/1999/xlink" version="1.1"><rect x="0" y="0" width="900" height="600" fill="#dedede"></rect><path d="M0 233L7.8 252.3C15.7 271.7 31.3 310.3 47.2 322.3C63 334.3 79 319.7 94.8 334.2C110.7 348.7 126.3 392.3 142 418C157.7 443.7 173.3 451.3 189.2 418.5C205 385.7 221 312.3 236.8 289.7C252.7 267 268.3 295 284.2 326.7C300 358.3 316 393.7 331.8 405.5C347.7 417.3 363.3 405.7 379 397.5C394.7 389.3 410.3 384.7 426.2 365.8C442 347 458 314 473.8 310.5C489.7 307 505.3 333 521 346.7C536.7 360.3 552.3 361.7 568.2 350.7C584 339.7 600 316.3 615.8 324.7C631.7 333 647.3 373 663.2 361.7C679 350.3 695 287.7 710.8 262.7C726.7 237.7 742.3 250.3 758 272.7C773.7 295 789.3 327 805.2 345.2C821 363.3 837 367.7 852.8 356.8C868.7 346 884.3 320 892.2 307L900 294L900 601L892.2 601C884.3 601 868.7 601 852.8 601C837 601 821 601 805.2 601C789.3 601 773.7 601 758 601C742.3 601 726.7 601 710.8 601C695 601 679 601 663.2 601C647.3 601 631.7 601 615.8 601C600 601 584 601 568.2 601C552.3 601 536.7 601 521 601C505.3 601 489.7 601 473.8 601C458 601 442 601 426.2 601C410.3 601 394.7 601 379 601C363.3 601 347.7 601 331.8 601C316 601 300 601 284.2 601C268.3 601 252.7 601 236.8 601C221 601 205 601 189.2 601C173.3 601 157.7 601 142 601C126.3 601 110.7 601 94.8 601C79 601 63 601 47.2 601C31.3 601 15.7 601 7.8 601L0 601Z" fill="#009473" stroke-linecap="round" stroke-linejoin="miter"></path></svg>